<svg xmlns="http://www.w3.org/2000/svg" viewBox="0 0 900 520">
  <defs>
    <linearGradient id="bg" x1="0" x2="1" y1="0" y2="1"><stop offset="0" stop-color="#f3f9ff"/><stop offset="0.62" stop-color="#ffffff"/><stop offset="1" stop-color="#e8f5ff"/></linearGradient>
    <radialGradient id="halo" cx="55%" cy="42%" r="60%"><stop offset="0" stop-color="#d9efff" stop-opacity=".95"/><stop offset="1" stop-color="#d9efff" stop-opacity="0"/></radialGradient>
    <filter id="shadow" x="-20%" y="-20%" width="140%" height="140%"><feDropShadow dx="0" dy="18" stdDeviation="20" flood-color="#0d2245" flood-opacity=".12"/></filter>
  </defs>
  <rect width="900" height="520" rx="36" fill="url(#bg)"/>
  <circle cx="560" cy="230" r="230" fill="url(#halo)"/>
  <g opacity=".23" fill="none" stroke="#7cb6e8" stroke-width="2">
    <circle cx="595" cy="220" r="165"/><circle cx="595" cy="220" r="105"/><path d="M430 220h330M595 55v330"/>
  </g>
  <g filter="url(#shadow)">
    <path d="M520 100c-16 0-30 10-36 25l-42 106 44 194h218l45-194-42-106c-6-15-20-25-36-25z" fill="#ffffff"/>
    <path d="M565 102l31 91 31-91" fill="#eef7ff" stroke="#d7eafa" stroke-width="5"/>
    <path d="M520 100l76 96 75-96" fill="none" stroke="#d6e8f8" stroke-width="6"/>
    <path d="M441 231l44 194M750 231l-45 194" stroke="#d6e8f8" stroke-width="7"/>
    <path d="M552 215c-55 0-90 35-90 86 0 36 24 65 58 77" fill="none" stroke="#1e76c5" stroke-width="14" stroke-linecap="round"/>
    <path d="M638 215c55 0 90 35 90 86 0 36-24 65-58 77" fill="none" stroke="#1e76c5" stroke-width="14" stroke-linecap="round"/>
    <circle cx="520" cy="382" r="20" fill="#ffffff" stroke="#1e76c5" stroke-width="10"/>
    <circle cx="670" cy="382" r="20" fill="#ffffff" stroke="#1e76c5" stroke-width="10"/>
    <circle cx="596" cy="292" r="50" fill="#23a865"/>
    <path d="M570 293l18 18 38-43" fill="none" stroke="#fff" stroke-width="13" stroke-linecap="round" stroke-linejoin="round"/>
  </g>
  <g opacity=".56" fill="#cfe8fb">
    <circle cx="132" cy="86" r="7"/><circle cx="162" cy="145" r="4"/><circle cx="750" cy="82" r="5"/><circle cx="793" cy="160" r="8"/><circle cx="290" cy="392" r="6"/>
  </g>
</svg>